<svg width="58" height="63" viewBox="0 0 58 63" fill="none" xmlns="http://www.w3.org/2000/svg">
<g filter="url(#filter0_dd_2054_761)">
<path fill-rule="evenodd" clip-rule="evenodd" d="M13.4082 5C10.9736 5 9 6.9736 9 9.40816V40.5918C9 43.0264 10.9736 45 13.4082 45H25.1509L27.0911 48.3605C27.9395 49.8299 30.0603 49.8299 30.9087 48.3605L32.8489 45H44.5918C47.0264 45 49 43.0264 49 40.5918V9.40816C49 6.9736 47.0264 5 44.5918 5H13.4082Z" fill="#6BC800"/>
<path d="M15.6666 38.3333V32.1333L27.3333 16.4L25 13.2667L27.1333 11.6667L29 14.1667L30.8666 11.6667L33 13.2667L30.6666 16.4L42.3333 32.1333V38.3333H15.6666ZM23.9666 35.6667H34.0333L29 28.6333L23.9666 35.6667Z" fill="white"/>
</g>
<defs>
<filter id="filter0_dd_2054_761" x="0.183673" y="0.591836" width="57.6327" height="64.2993" filterUnits="userSpaceOnUse" color-interpolation-filters="sRGB">
<feFlood flood-opacity="0" result="BackgroundImageFix"/>
<feColorMatrix in="SourceAlpha" type="matrix" values="0 0 0 0 0 0 0 0 0 0 0 0 0 0 0 0 0 0 127 0" result="hardAlpha"/>
<feOffset dy="4.40816"/>
<feGaussianBlur stdDeviation="4.40816"/>
<feColorMatrix type="matrix" values="0 0 0 0 0 0 0 0 0 0 0 0 0 0 0 0 0 0 0.24 0"/>
<feBlend mode="normal" in2="BackgroundImageFix" result="effect1_dropShadow_2054_761"/>
<feColorMatrix in="SourceAlpha" type="matrix" values="0 0 0 0 0 0 0 0 0 0 0 0 0 0 0 0 0 0 127 0" result="hardAlpha"/>
<feOffset dy="4.40816"/>
<feGaussianBlur stdDeviation="4.40816"/>
<feColorMatrix type="matrix" values="0 0 0 0 0 0 0 0 0 0 0 0 0 0 0 0 0 0 0.04 0"/>
<feBlend mode="normal" in2="effect1_dropShadow_2054_761" result="effect2_dropShadow_2054_761"/>
<feBlend mode="normal" in="SourceGraphic" in2="effect2_dropShadow_2054_761" result="shape"/>
</filter>
</defs>
</svg>
