<svg width="20" height="20" viewBox="0 0 20 20" fill="none" xmlns="http://www.w3.org/2000/svg">
<rect width="20" height="20" rx="6" fill="#FF7700"/>
<path d="M7.50005 15.5L9.03755 7.725C9.08755 7.48334 9.20005 7.302 9.37505 7.181C9.55005 7.06 9.73338 6.99967 9.92505 7C10.1167 7.00034 10.2939 7.042 10.4565 7.125C10.6192 7.208 10.7504 7.333 10.85 7.5L11.35 8.3C11.5 8.54167 11.6939 8.7605 11.9315 8.9565C12.1692 9.1525 12.442 9.29617 12.75 9.3875V8.5H13.5V15.5H12.75V10.425C12.35 10.3333 11.9792 10.1875 11.6375 9.9875C11.2959 9.7875 11 9.54167 10.75 9.25L10.45 10.75L11.5 11.75V15.5H10.5V12.5L9.45005 11.5L8.55005 15.5H7.50005ZM7.71255 10.5625L6.65005 10.3625C6.51672 10.3375 6.41255 10.2687 6.33755 10.156C6.26255 10.0433 6.23755 9.91634 6.26255 9.775L6.63755 7.8125C6.68755 7.54584 6.82922 7.33534 7.06255 7.181C7.29588 7.02667 7.54588 6.97467 7.81255 7.025L8.38755 7.1375L7.71255 10.5625ZM10.75 6.75C10.475 6.75 10.2397 6.65217 10.044 6.4565C9.84838 6.26084 9.75038 6.02534 9.75005 5.75C9.74972 5.47467 9.84772 5.23934 10.044 5.044C10.2404 4.84867 10.4757 4.75067 10.75 4.75C11.0244 4.74934 11.2599 4.84734 11.4565 5.044C11.6532 5.24067 11.751 5.476 11.75 5.75C11.749 6.024 11.6512 6.2595 11.4565 6.4565C11.2619 6.6535 11.0264 6.75134 10.75 6.75Z" fill="white"/>
</svg>
