<svg width="58" height="63" viewBox="0 0 58 63" fill="none" xmlns="http://www.w3.org/2000/svg">
<g filter="url(#filter0_dd_2054_842)">
<path fill-rule="evenodd" clip-rule="evenodd" d="M13.4082 5C10.9736 5 9 6.9736 9 9.40816V40.5918C9 43.0264 10.9736 45 13.4082 45H25.1509L27.0911 48.3605C27.9395 49.8299 30.0603 49.8299 30.9087 48.3605L32.8489 45H44.5918C47.0264 45 49 43.0264 49 40.5918V9.40816C49 6.9736 47.0264 5 44.5918 5H13.4082Z" fill="#00C882"/>
<g clip-path="url(#clip0_2054_842)">
<path d="M30.3333 13H21V37H26.3333V29H30.3333C34.7467 29 38.3333 25.4133 38.3333 21C38.3333 16.5867 34.7467 13 30.3333 13ZM30.6 23.6667H26.3333V18.3333H30.6C32.0667 18.3333 33.2667 19.5333 33.2667 21C33.2667 22.4667 32.0667 23.6667 30.6 23.6667Z" fill="white"/>
</g>
</g>
<defs>
<filter id="filter0_dd_2054_842" x="0.183673" y="0.591836" width="57.6327" height="64.2993" filterUnits="userSpaceOnUse" color-interpolation-filters="sRGB">
<feFlood flood-opacity="0" result="BackgroundImageFix"/>
<feColorMatrix in="SourceAlpha" type="matrix" values="0 0 0 0 0 0 0 0 0 0 0 0 0 0 0 0 0 0 127 0" result="hardAlpha"/>
<feOffset dy="4.40816"/>
<feGaussianBlur stdDeviation="4.40816"/>
<feColorMatrix type="matrix" values="0 0 0 0 0 0 0 0 0 0 0 0 0 0 0 0 0 0 0.24 0"/>
<feBlend mode="normal" in2="BackgroundImageFix" result="effect1_dropShadow_2054_842"/>
<feColorMatrix in="SourceAlpha" type="matrix" values="0 0 0 0 0 0 0 0 0 0 0 0 0 0 0 0 0 0 127 0" result="hardAlpha"/>
<feOffset dy="4.40816"/>
<feGaussianBlur stdDeviation="4.40816"/>
<feColorMatrix type="matrix" values="0 0 0 0 0 0 0 0 0 0 0 0 0 0 0 0 0 0 0.04 0"/>
<feBlend mode="normal" in2="effect1_dropShadow_2054_842" result="effect2_dropShadow_2054_842"/>
<feBlend mode="normal" in="SourceGraphic" in2="effect2_dropShadow_2054_842" result="shape"/>
</filter>
<clipPath id="clip0_2054_842">
<rect width="32" height="32" fill="white" transform="translate(13 9)"/>
</clipPath>
</defs>
</svg>
