<svg width="20" height="20" viewBox="0 0 20 20" fill="none" xmlns="http://www.w3.org/2000/svg">
<rect width="20" height="20" rx="6" fill="#FF00BF"/>
<path d="M14 8H15V7L14 6H5.5C5.23478 6 4.98043 6.10536 4.79289 6.29289C4.60536 6.48043 4.5 6.73478 4.5 7V11.5C4.5 11.7652 4.60536 12.0196 4.79289 12.2071C4.98043 12.3946 5.23478 12.5 5.5 12.5H6C6 12.8978 6.15804 13.2794 6.43934 13.5607C6.72064 13.842 7.10218 14 7.5 14C7.89782 14 8.27936 13.842 8.56066 13.5607C8.84196 13.2794 9 12.8978 9 12.5H11.5C11.5 12.8978 11.658 13.2794 11.9393 13.5607C12.2206 13.842 12.6022 14 13 14C13.3978 14 13.7794 13.842 14.0607 13.5607C14.342 13.2794 14.5 12.8978 14.5 12.5H15.5V10M7.5 13.25C7.30109 13.25 7.11032 13.171 6.96967 13.0303C6.82902 12.8897 6.75 12.6989 6.75 12.5C6.75 12.3011 6.82902 12.1103 6.96967 11.9697C7.11032 11.829 7.30109 11.75 7.5 11.75C7.69891 11.75 7.88968 11.829 8.03033 11.9697C8.17098 12.1103 8.25 12.3011 8.25 12.5C8.25 12.6989 8.17098 12.8897 8.03033 13.0303C7.88968 13.171 7.69891 13.25 7.5 13.25ZM8.5 10H5.5V8.5H8.5M11 11.5H9.5V8.5H11M13 13.25C12.8517 13.25 12.7067 13.206 12.5833 13.1236C12.46 13.0412 12.3639 12.9241 12.3071 12.787C12.2503 12.65 12.2355 12.4992 12.2644 12.3537C12.2933 12.2082 12.3648 12.0746 12.4697 11.9697C12.5746 11.8648 12.7082 11.7933 12.8537 11.7644C12.9992 11.7355 13.15 11.7503 13.287 11.8071C13.4241 11.8639 13.5412 11.96 13.6236 12.0833C13.706 12.2067 13.75 12.3517 13.75 12.5C13.7449 12.6973 13.6643 12.8852 13.5247 13.0247C13.3852 13.1643 13.1973 13.2449 13 13.25ZM12.5 10V8.75H13.75L14.75 10H12.5Z" fill="white"/>
</svg>
